<svg xmlns="http://www.w3.org/2000/svg" viewBox="62.31 35.20 158.10 158.10" fill="#98E086">
  <path fill-rule="evenodd" d="M 106.84375 162.015625 C 107.066406 161.363281 107.191406 160.527344 107.332031 159.867188 C 107.707031 158.054688 108.035156 156.234375 108.351562 154.414062 C 109.253906 149.273438 110.074219 144.121094 110.878906 138.964844 C 112.050781 131.433594 113.179688 123.894531 114.292969 116.355469 C 115.410156 108.753906 116.875 101.191406 118.59375 93.707031 C 120.117188 87.078125 125.851562 61.414062 137.070312 68.898438 C 140.242188 71.011719 139.882812 76.996094 139.882812 80.363281 C 139.882812 92.039062 139.882812 103.714844 139.882812 115.390625 C 139.882812 116.902344 138.652344 118.132812 137.144531 118.132812 C 135.632812 118.132812 134.402344 116.902344 134.402344 115.390625 C 134.402344 103.714844 134.402344 92.039062 134.402344 80.363281 C 134.402344 79.199219 134.394531 74.148438 134.03125 73.457031 C 131.648438 71.867188 128.683594 78.578125 128.121094 80.097656 C 126.339844 84.902344 125.082031 89.945312 123.933594 94.9375 C 122.246094 102.28125 120.8125 109.699219 119.710938 117.15625 C 118.597656 124.710938 117.472656 132.265625 116.292969 139.8125 C 115.460938 145.140625 114.617188 150.46875 113.675781 155.777344 C 113.308594 157.855469 112.539062 163.226562 111.570312 164.84375 C 110.074219 167.335938 99.394531 174.847656 96.394531 177.082031 C 91.425781 180.78125 86.4375 184.453125 81.417969 188.082031 C 80.191406 188.964844 78.472656 188.6875 77.589844 187.464844 C 76.707031 186.238281 76.984375 184.523438 78.207031 183.636719 C 83.207031 180.023438 88.175781 176.371094 93.121094 172.6875 C 96.238281 170.367188 99.34375 168.035156 102.40625 165.644531 C 103.722656 164.617188 105.738281 163.246094 106.84375 162.015625 Z M 138.617188 41.96875 C 138.617188 40.457031 139.847656 39.226562 141.359375 39.226562 C 142.867188 39.226562 144.097656 40.457031 144.097656 41.96875 C 144.097656 44.730469 144.097656 47.496094 144.097656 50.261719 C 144.097656 51.773438 142.867188 53.003906 141.359375 53.003906 C 139.847656 53.003906 138.617188 51.773438 138.617188 50.261719 C 138.617188 47.496094 138.617188 44.730469 138.617188 41.96875 Z M 174.738281 87.550781 L 198.136719 73.945312 C 199.4375 73.1875 201.125 73.632812 201.882812 74.933594 C 202.640625 76.238281 202.191406 77.921875 200.890625 78.679688 L 177.496094 92.285156 C 176.191406 93.042969 174.507812 92.597656 173.75 91.296875 C 172.992188 89.992188 173.4375 88.308594 174.738281 87.550781 Z M 166.714844 60.136719 L 172.691406 50.179688 C 173.464844 48.890625 175.160156 48.464844 176.449219 49.242188 C 177.738281 50.015625 178.160156 51.710938 177.386719 53 L 171.414062 62.957031 C 170.640625 64.246094 168.945312 64.667969 167.65625 63.894531 C 166.367188 63.121094 165.941406 61.425781 166.714844 60.136719 Z M 107.976562 87.550781 C 109.28125 88.308594 109.722656 89.992188 108.964844 91.296875 C 108.207031 92.597656 106.523438 93.042969 105.21875 92.285156 L 81.824219 78.679688 C 80.523438 77.921875 80.074219 76.238281 80.832031 74.933594 C 81.589844 73.632812 83.277344 73.1875 84.582031 73.945312 Z M 116 60.136719 C 116.773438 61.425781 116.347656 63.121094 115.058594 63.894531 C 113.769531 64.667969 112.074219 64.246094 111.300781 62.957031 L 105.328125 53 C 104.554688 51.710938 104.976562 50.015625 106.265625 49.242188 C 107.554688 48.464844 109.253906 48.890625 110.023438 50.179688 Z M 142.699219 166.648438 C 142.753906 153.683594 142.835938 140.714844 142.835938 127.742188 C 142.835938 115.902344 156.492188 117.164062 158.5625 124.886719 C 159.054688 126.722656 159.296875 128.65625 159.570312 130.535156 C 159.964844 133.273438 160.3125 136.019531 160.644531 138.765625 C 161.226562 143.546875 161.757812 148.335938 162.265625 153.125 C 162.425781 154.617188 161.328125 155.980469 159.832031 156.136719 C 158.335938 156.296875 156.976562 155.199219 156.816406 153.703125 C 156.308594 148.941406 155.78125 144.179688 155.207031 139.429688 C 154.878906 136.722656 154.535156 134.019531 154.144531 131.320312 C 153.90625 129.664062 153.703125 127.921875 153.265625 126.304688 C 152.835938 124.691406 148.316406 122.378906 148.316406 127.742188 C 148.316406 140.734375 148.234375 153.726562 148.179688 166.71875 C 148.179688 166.769531 148.179688 166.824219 148.175781 166.847656 C 148.105469 168.238281 149.121094 170.667969 149.796875 171.875 C 152.757812 177.191406 158.613281 181.101562 163.964844 183.71875 C 165.324219 184.378906 165.886719 186.023438 165.222656 187.382812 C 164.5625 188.738281 162.917969 189.304688 161.558594 188.640625 C 155.128906 185.5 148.5625 180.914062 145.011719 174.546875 C 143.789062 172.359375 142.589844 169.148438 142.699219 166.648438 Z M 175.875 162.015625 C 176.980469 163.246094 178.992188 164.617188 180.308594 165.644531 C 183.371094 168.035156 186.476562 170.367188 189.59375 172.6875 C 194.539062 176.371094 199.511719 180.023438 204.507812 183.636719 C 205.730469 184.523438 206.011719 186.238281 205.125 187.464844 C 204.242188 188.6875 202.523438 188.964844 201.300781 188.082031 C 196.277344 184.453125 191.289062 180.78125 186.320312 177.082031 C 183.320312 174.847656 172.640625 167.335938 171.144531 164.84375 C 170.175781 163.226562 169.40625 157.855469 169.039062 155.777344 C 168.097656 150.46875 167.253906 145.140625 166.421875 139.8125 C 165.246094 132.265625 164.117188 124.710938 163.003906 117.15625 C 161.90625 109.699219 160.46875 102.28125 158.78125 94.9375 C 157.632812 89.945312 156.375 84.902344 154.59375 80.097656 C 154.03125 78.578125 151.066406 71.867188 148.808594 73.335938 C 148.320312 74.148438 148.3125 79.199219 148.3125 80.363281 C 148.3125 92.039062 148.3125 103.714844 148.3125 115.390625 C 148.3125 116.902344 147.082031 118.132812 145.570312 118.132812 C 144.0625 118.132812 142.832031 116.902344 142.832031 115.390625 C 142.832031 103.714844 142.832031 92.039062 142.832031 80.363281 C 142.832031 76.996094 142.472656 71.011719 145.644531 68.898438 C 156.863281 61.414062 162.597656 87.078125 164.121094 93.707031 C 165.84375 101.191406 167.304688 108.753906 168.425781 116.355469 C 169.535156 123.894531 170.664062 131.433594 171.839844 138.964844 C 172.640625 144.121094 173.460938 149.273438 174.363281 154.414062 C 174.683594 156.234375 175.007812 158.054688 175.382812 159.867188 C 175.523438 160.527344 175.648438 161.363281 175.875 162.015625 Z M 140.015625 166.628906 C 140.125 169.148438 138.925781 172.359375 137.707031 174.546875 C 134.152344 180.914062 127.585938 185.5 121.15625 188.640625 C 119.796875 189.304688 118.152344 188.738281 117.492188 187.382812 C 116.828125 186.023438 117.394531 184.378906 118.75 183.71875 C 124.101562 181.101562 129.957031 177.191406 132.917969 171.875 C 133.59375 170.667969 134.609375 168.238281 134.539062 166.875 C 134.535156 166.824219 134.535156 166.769531 134.535156 166.71875 C 134.480469 153.726562 134.398438 140.734375 134.398438 127.742188 C 134.398438 122.378906 129.878906 124.691406 129.449219 126.304688 C 129.015625 127.921875 128.808594 129.664062 128.570312 131.320312 C 128.179688 134.019531 127.839844 136.722656 127.511719 139.429688 C 126.933594 144.179688 126.40625 148.941406 125.898438 153.703125 C 125.742188 155.199219 124.378906 156.296875 122.882812 156.136719 C 121.390625 155.980469 120.292969 154.617188 120.449219 153.125 C 120.957031 148.335938 121.488281 143.546875 122.070312 138.765625 C 122.402344 136.019531 122.75 133.273438 123.144531 130.535156 C 123.417969 128.65625 123.660156 126.722656 124.152344 124.886719 C 126.222656 117.164062 139.882812 115.902344 139.882812 127.742188 C 139.882812 140.714844 139.960938 153.683594 140.015625 166.628906 "/>
</svg>